# xmcd
#
# Track frame offsets:
#	150
#	4108
#	12908
#	16690
#	20548
#	24373
#	28280
#	32615
#	36510
#	41275
#	46173
#	53063
#	57833
#	64810
#	69450
#	74113
#	80328
#	85108
#	92128
#	97018
#	104160
#
# Disc length: 1439 seconds
#
# Revision: 1
# Processed by: cddbd v1.5PL3 Copyright (c) Steve Scherf et al.
# Submitted via: CDex 1.50Beta5
#
DISCID=10059d15
DTITLE=てんきだげんきだ - いないいないばあっ!
DYEAR=1900
DGENRE=Children's Music -> Japanese Children's Song (Doyo)
TTITLE0=いないいないばぁっ!
TTITLE1=ちびっこマンたいそう
TTITLE2=がったんおまるの電車
TTITLE3=おててシャワシャワー
TTITLE4=おいしくたべよう
TTITLE5=ピコピコおかたづけ
TTITLE6=おはなししたいのだあれ?
TTITLE7=チーしちゃおう
TTITLE8=とってもとってもハクション
TTITLE9=ぼよよん ゼリーとプリン
TTITLE10=ママから聞いたこと
TTITLE11=おふろでチャップン
TTITLE12=せんたくじゃぶじゃぶ
TTITLE13=ねばねば
TTITLE14=ひとりっこカバっこ
TTITLE15=ぐるぐるクッキー
TTITLE16=カッチコッチとけい!
TTITLE17=きらりら きらりん
TTITLE18=こちょこちょ
TTITLE19=てんきだ げんきだ
TTITLE20=いないいないばあっ!
EXTD=
EXTT0=
EXTT1=
EXTT2=
EXTT3=
EXTT4=
EXTT5=
EXTT6=
EXTT7=
EXTT8=
EXTT9=
EXTT10=
EXTT11=
EXTT12=
EXTT13=
EXTT14=
EXTT15=
EXTT16=
EXTT17=
EXTT18=
EXTT19=
EXTT20=
PLAYORDER=
